<?xml version="1.0" encoding="UTF-8" standalone="no"?>
<!-- Created with Inkscape (http://www.inkscape.org/) -->

<svg
   width="311.59045mm"
   height="303.01456mm"
   viewBox="0 0 311.59045 303.01456"
   version="1.1"
   id="svg639"
   xml:space="preserve"
   inkscape:version="1.2.1 (9c6d41e410, 2022-07-14, custom)"
   sodipodi:docname="icono.svg"
   xmlns:inkscape="http://www.inkscape.org/namespaces/inkscape"
   xmlns:sodipodi="http://sodipodi.sourceforge.net/DTD/sodipodi-0.dtd"
   xmlns="http://www.w3.org/2000/svg"
   xmlns:svg="http://www.w3.org/2000/svg">

	<style
   type="text/css"
   id="style2096">
		<![CDATA[
			path {
				fill:#fafafa;
			}
			text {
				fill:#fafafa
			}
		]]> 
	  </style>

	<sodipodi:namedview
   id="namedview641"
   pagecolor="#000000"
   bordercolor="#000000"
   borderopacity="0.25"
   inkscape:showpageshadow="2"
   inkscape:pageopacity="0.0"
   inkscape:pagecheckerboard="0"
   inkscape:deskcolor="#d1d1d1"
   inkscape:document-units="mm"
   showgrid="false"
   inkscape:zoom="0.2102413"
   inkscape:cx="480.40038"
   inkscape:cy="1093.9811"
   inkscape:window-width="1440"
   inkscape:window-height="831"
   inkscape:window-x="0"
   inkscape:window-y="0"
   inkscape:window-maximized="1"
   inkscape:current-layer="layer1" /><defs
   id="defs636"><clipPath
     clipPathUnits="userSpaceOnUse"
     id="clipPath1410"><path
       id="path1412"
       style="fill:#ff0000;fill-opacity:1;fill-rule:nonzero;stroke:none;stroke-width:0.264583"
       d="m -155.43342,-93.478551 v 25.618075 c 2.02476,-4.6114 3.73647,-8.364263 7.50497,-12.842111 0.85221,-1.012621 1.74962,-1.958572 2.68149,-2.852022 1.49659,-4.142709 3.4807,-7.448788 5.75417,-9.923942 z m 452.73206,0 c 1.82081,0.717289 3.66178,1.493926 5.41931,2.403471 2.32293,-0.163951 4.65121,-0.262329 6.98769,-0.255798 11.62349,0.159309 23.27209,0.806853 34.78856,2.444812 v -4.592485 z m 44.75335,22.355225 c -3.79463,-0.1379 -5.43748,2.540336 -2.67891,10.813294 0.26932,0.807815 0.47115,1.447959 0.65265,1.996776 1.67748,2.105819 3.16513,4.363606 4.46847,6.738607 v -19.167305 c -0.88368,-0.219224 -1.70461,-0.354567 -2.44221,-0.381372 z m -454.24309,21.092769 c -0.35606,0.06176 -0.79092,0.437737 -1.18339,0.647507 0.21337,-0.02323 0.42499,-0.05244 0.63717,-0.0801 0.1746,-0.190564 0.3651,-0.378222 0.54829,-0.567407 -7.9e-4,1.24e-4 -10e-4,-1.27e-4 -0.002,0 z m 382.22268,8.676473 c -3.89072,5.190202 -11.60372,9.083683 -23.1867,9.083683 h -25.35143 c -12.60019,0.420788 -25.12067,-0.438208 -37.60287,-2.082559 -11.80991,-1.616922 -23.45965,-4.162867 -35.26504,-5.823418 -4.08189,-0.51253 -8.2218,-1.048732 -12.34861,-1.00769 -3.85834,0.03837 -7.82817,0.673548 -11.66233,1.029394 -10.89112,1.409155 -21.81101,2.448462 -32.771122,3.117122 -12.057981,0.697931 -24.14887,0.472678 -36.187454,1.480013 -13.468202,1.292561 -26.982989,1.941147 -40.500887,2.413291 -12.0831112,0.39737 -24.216752,0.371927 -36.24275,1.730642 -8.864848,0.790385 -17.485828,2.890335 -26.110033,4.965589 -1.316498,0.327573 -2.645992,0.606872 -3.949631,0.982369 -0.781053,0.224978 -7.389318,2.532745 -7.502901,2.571935 -5.999321,2.069706 -11.993028,4.155438 -17.995283,6.216677 l -5.39812,1.887222 c -3.559151,1.244195 -6.852083,1.938052 -9.884153,2.220021 -6.124432,5.0285916 -12.372096,10.1369073 -19.641176,13.38884547 1.02586,4.98433463 2.09978,9.95818653 3.34656,14.89314753 2.4788,9.947888 4.73085,19.946495 6.69623,30.007472 2.316092,8.859608 5.38273,17.506458 7.168045,26.502773 0.827739,4.727453 1.210898,6.322335 1.631942,11.132656 0.534223,6.103652 0.247312,12.217696 0.234612,18.333249 -0.0956,7.65026 -0.171606,15.30823 -0.770496,22.93968 -0.749628,9.54186 -1.772264,19.06237 -3.391009,28.50059 -1.066871,6.63604 -2.22391,13.26422 -3.164665,19.91971 -1.205299,8.52723 -0.838439,6.89819 -1.886189,15.8197 -0.35436,3.01742 -0.75131,6.02962 -1.12707,9.04442 -2.4153,16.93193 -5.00361,33.87897 -9.06042,50.50131 0.28155,8.44687 0.38641,16.8996 0.18035,25.3602 v 17.19689 c 0.0805,1.00454 0.17223,2.00776 0.23926,3.01376 0.11004,1.65161 0.12425,3.21945 0.0677,4.71961 7.49615,-1.99559 16.13594,-0.33536 22.861143,2.98175 2.67394,1.31887 5.041998,3.18384 7.562847,4.77592 8.802235,7.41809 15.067315,17.22553 18.881019,28.03704 1.420696,-0.62624 2.834642,-1.27603 4.347538,-1.5849 2.910001,-0.59415 5.907646,-0.69038 8.876461,-0.77568 0.905894,-0.0259 1.792592,0.27199 2.682523,0.44339 4.456319,0.85836 8.836126,2.10608 13.138732,3.53777 8.150691,2.59418 16.405114,5.01007 24.4806763,7.87394 0.5311908,-0.76321 1.1025399,-1.5 1.7239245,-2.19728 4.8623643,-5.45595 7.60682373,-5.63539 13.9392025,-7.92303 13.7909697,-2.33616 27.9167827,-1.72474 41.8134697,-0.79428 13.486926,1.40536 26.930178,3.17064 40.438358,4.37028 7.516643,0.91192 15.137296,0.64183 22.665806,1.30535 1.9976,0.17608 3.98219,0.47752 5.97328,0.71623 10.66433,1.93249 21.2066,4.38888 31.94535,5.90817 10.59722,1.38422 21.28866,1.73834 31.95875,2.09394 9.74143,0.30409 19.48802,0.38304 29.23336,0.45164 4.94935,0.234 9.93979,-0.11488 14.89832,0.0661 7.43665,-1.22957 14.8758,-2.43464 22.37021,-3.28919 9.36603,-1.07344 18.80504,-1.06847 28.19725,-1.72808 2.58882,-0.27339 5.17612,-0.4886 7.76335,-0.66971 -1.50982,-5.97114 -1.25423,-11.44241 -0.86146,-17.91621 1.25,-13.60302 3.47681,-27.06216 5.72059,-40.52519 1.73334,-10.58577 2.3486,-21.29806 3.3171,-31.96651 0.41395,-6.28841 1.27765,-12.51948 2.13061,-18.75288 -0.47445,-3.14777 -0.8691,-6.30457 -1.21025,-9.46713 -8.264,-0.96306 -16.07034,-9.65076 -16.07034,-26.06921 v -22.1733 c -0.18095,-10.64093 0.12996,-21.26601 0.6165,-31.89367 -0.0834,-2.60763 0.40727,-5.69984 -0.63767,-8.23929 -0.21505,-0.52266 -0.10591,0.50179 -0.60979,0.25838 -2.06303,-2.21302 -3.76676,-4.68596 -5.4932,-7.16028 -13.09931,-18.77374 -3.77534,-34.460762 9.01753,-34.435111 0.80592,0.0016 1.62592,0.0674 2.45462,0.196887 0.0382,-11.101692 0.0925,-22.203492 0.22842,-33.304427 0.1951,-14.372151 0.38375,-28.758089 1.45314,-43.09763 1.0292,-12.4325723 2.41192,-24.8533523 4.62659,-37.133133 -9.09709,1.617202 -18.27009,-3.82995 -17.73897,-19.44429 0.008,-0.251767 -0.67424,-1.550241 -1.25934,-2.53473 z M -93.343149,318.53869 c -0.01254,0.0288 0.06773,0.5711 0.134874,0.99787 0.04547,-0.1593 0.07166,-0.27884 0.120407,-0.44442 -0.166669,-0.39248 -0.241668,-0.5847 -0.255281,-0.55345 z m 79.772907,29.16875 c -0.402579,0.007 -0.809654,0.14512 -1.190625,0.35502 0.817991,0.0609 1.63716,0.0994 2.455148,0.1602 -0.382421,-0.36351 -0.817504,-0.52258 -1.264523,-0.51522 z m 27.508917,2.39106 c -0.478761,-0.13327 0.907907,0.42363 1.393195,0.53073 0.406911,0.0897 0.819746,0.15431 1.228866,0.23461 -0.562859,-0.19699 -1.328987,-0.40537 -2.622061,-0.76534 z m -169.372095,10.72804 v 30.69476 h 33.93333 c -0.73367,-1.02476 -1.3447,-2.14739 -1.79266,-3.38894 -1.227,-3.40093 -1.82257,-6.38368 -1.90582,-9.09143 -0.10379,-0.17754 -0.20599,-0.36391 -0.31006,-0.54054 -6.50576,-4.26842 -13.08861,-8.40169 -19.89956,-12.18168 -3.26534,-1.93226 -6.70076,-3.62522 -10.02523,-5.49217 z m 499.92762,13.0302 c -1.23762,2.4625 -2.65208,4.84669 -4.30258,7.11946 -3.14219,4.15028 -4.35514,6.11756 -8.33178,9.74257 -0.31118,0.28368 -0.6478,0.5308 -0.96739,0.80253 H 344.4942 Z M 42.128167,391.39935 c -0.02392,0.0411 -0.04994,0.0808 -0.0739,0.12195 h 0.720884 c -0.215961,-0.0387 -0.430993,-0.0834 -0.646988,-0.12195 z" /></clipPath></defs><g
   inkscape:label="Capa 1"
   inkscape:groupmode="layer"
   id="layer1"
   transform="translate(76.306789,5.4640437)"><path
     style="fill:#0000ff;stroke:#000000;stroke-width:1.25847"
     d="M 66.446461,296.3405 C 46.277101,294.78837 26.733511,288.92066 5.4104408,278.01517 -32.672659,258.53789 -59.166389,226.32373 -72.118779,183.74616 c -3.24749,-10.67527 -3.44564,-12.75167 -3.54118,-37.10678 -0.0962,-24.51261 0.0731,-26.4261 3.39511,-38.38347 C -49.898649,27.750347 35.679141,-20.898003 118.13597,0.01888704 139.13153,5.344847 166.04852,18.816107 182.83633,32.399767 c 4.08575,3.30594 7.88516,5.99525 8.44312,5.97623 0.55795,-0.019 9.21094,-7.66424 19.22883,-16.9894 10.01792,-9.32517 18.86799,-16.95484 19.66687,-16.95484 4.14473,0 4.45434,3.38103 4.4789,48.91302 0.0135,24.91275 -0.33846,46.43932 -0.78201,47.836823 -0.44354,1.39749 -2.05168,2.9476 -3.57364,3.44468 -3.9696,1.29649 -92.69683,1.34974 -96.83816,0.0581 -1.90344,-0.59366 -3.46081,-1.85038 -3.46081,-2.79273 0,-0.94235 7.64522,-9.687873 16.9894,-19.434493 9.34419,-9.74662 16.9894,-18.24604 16.9894,-18.88759 0,-1.70177 -11.68659,-10.14121 -23.3217,-16.84169 -20.76778,-11.95984 -42.773329,-16.78491 -70.434649,-15.44394 -23.02601,1.11626 -38.66008,6.29811 -58.26415,19.31144 -33.9986,22.56852 -51.86871,55.764373 -51.84355,96.305543 0.0325,52.33986 35.1650398,96.04259 89.01245,110.72602 14.05171,3.83169 45.70596,3.84656 59.699499,0.028 23.31548,-6.36225 40.85161,-16.37633 55.91915,-31.9328 10.82239,-11.17359 18.41625,-22.65881 26.74517,-40.45048 4.88953,-10.44466 7.17989,-13.935 10.45401,-15.93114 7.44455,-4.53877 18.15954,-2.37026 23.86734,4.83029 8.04617,10.15036 -6.00696,43.91763 -29.56697,71.0444 -23.40655,26.95006 -62.18372,46.44459 -99.310669,49.92661 -7.77014,0.72874 -15.26016,1.49268 -16.64448,1.69762 -1.38432,0.20495 -7.61377,-0.0196 -13.84322,-0.49898 z"
     id="path1485" /><path
     style="fill:#ff0000;stroke:#000000;stroke-width:1.25847"
     d="m 54.215695,182.56485 c -2.41177,-1.28162 -5.65924,-4.19693 -7.2166,-6.47849 -2.76713,-4.05388 -2.83157,-4.93536 -2.83157,-38.73581 v -34.58753 l 5.49755,-5.497553 c 5.07635,-5.07634 5.99712,-5.49754 12.01801,-5.49754 8.07383,0 12.93278,2.41741 17.05641,8.485873 3.10039,4.56263 3.18227,5.24233 3.18227,26.41431 v 21.73117 h 22.085815 c 24.24542,0 26.56817,0.5432 32.50793,7.6022 4.7053,5.59194 4.7053,15.69942 0,21.29136 -6.26039,7.44003 -7.20257,7.60219 -44.168465,7.60219 -30.42705,0 -34.17764,-0.22918 -38.13135,-2.33018 z"
     id="path1779" /></g></svg>
